<svg id="Capa_1" enable-background="new 0 0 512 512" height="512" viewBox="0 0 512 512" width="512" xmlns="http://www.w3.org/2000/svg"><g><path d="m474.5 467h-100.595l-13.29-39.872c-1.021-3.063-3.887-5.128-7.115-5.128h-39.466l-14.69-339.824c-.174-4.013-3.477-7.176-7.493-7.176h-1.29c.833-2.347 1.29-4.871 1.29-7.5 0-9.15-5.493-17.036-13.352-20.548v-24.452c.001-12.407-10.093-22.5-22.499-22.5s-22.5 10.093-22.5 22.5v24.452c-7.859 3.513-13.352 11.398-13.352 20.548 0 2.629.458 5.153 1.29 7.5h-1.29c-4.017 0-7.319 3.164-7.493 7.176l-14.689 339.824h-39.466c-3.229 0-6.095 2.066-7.115 5.128l-15 45c-.763 2.287-.379 4.801 1.031 6.757 1.409 1.956 3.673 3.115 6.084 3.115h331c9.778 0 18.119 6.27 21.215 15h-479.43c3.096-8.73 11.437-15 21.215-15h76c4.143 0 7.5-3.358 7.5-7.5s-3.357-7.5-7.5-7.5h-76c-20.678 0-37.5 16.822-37.5 37.5 0 4.142 3.357 7.5 7.5 7.5h497c4.143 0 7.5-3.358 7.5-7.5 0-20.678-16.822-37.5-37.5-37.5zm-218.5-452c4.136 0 7.5 3.364 7.5 7.5v22.5h-15v-22.5c0-4.136 3.364-7.5 7.5-7.5zm-20.852 52.5c0-4.136 3.364-7.5 7.5-7.5h26.703c4.136 0 7.5 3.364 7.5 7.5s-3.364 7.5-7.5 7.5h-26.703c-4.135 0-7.5-3.364-7.5-7.5zm-7.817 22.5h57.338l14.351 332h-86.04zm-73.426 377 10-30h184.189l10 30z"/><path d="m270.988 287h-29.977c-4.017 0-7.319 3.164-7.493 7.176l-4.539 105c-.088 2.043.662 4.034 2.076 5.511 1.415 1.477 3.372 2.313 5.417 2.313h39.055c2.045 0 4.002-.835 5.417-2.313 1.414-1.477 2.164-3.468 2.076-5.511l-4.539-105c-.173-4.012-3.476-7.176-7.493-7.176zm-26.684 105 3.891-90h15.611l3.891 90z"/></g></svg>