<svg id="Capa_1" enable-background="new 0 0 512 512" height="512" viewBox="0 0 512 512" width="512" xmlns="http://www.w3.org/2000/svg"><g><path d="m441.722 125.22-28.5-35.123v-39.046h-30v39.045l-28.502 35.124z"/><path d="m512 368.998c-24.867 0-46.405-14.192-57-34.908v147.91h-30v-250h-61v250h-216v-250h-61v250h-30v-147.91c-10.595 20.717-32.133 34.908-57 34.908v143.002h512z"/><path d="m157.279 125.22-28.501-35.123v-39.046h-30v39.045l-28.502 35.124z"/><path d="m32 155.22h448v46.78h-448z"/><path d="m195.913 125.22h120.172l8.656-10.666-53.741-62.066v-52.488h-30v52.488l-53.741 62.066z"/></g></svg>