<svg id="Capa_1" enable-background="new 0 0 512 512" height="512" viewBox="0 0 512 512" width="512" xmlns="http://www.w3.org/2000/svg"><g><path d="m299.208 185.501c-5.858-5.859-15.355-5.857-21.213 0s-5.858 15.354 0 21.213v.001l-30.503 30.503-14.759-56.352c-.895-3.417-2.968-6.409-5.852-8.448l-76.866-54.333c-5.189-3.668-12.127-3.668-17.316 0l-76.866 54.333c-2.885 2.039-4.958 5.031-5.853 8.448l-28.2 107.666c-.325 1.241-.489 2.519-.489 3.801v129.667h-6.291c-8.284 0-15 6.716-15 15v60c0 8.284 6.716 15 15 15h252.712c8.284 0 15-6.716 15-15v-60c0-8.284-6.716-15-15-15h-6.29v-129.667c0-1.282-.165-2.56-.489-3.801l-4.635-17.695 42.91-42.909c2.929 2.93 6.767 4.394 10.607 4.394 3.838 0 7.678-1.465 10.606-4.394 5.858-5.857 5.858-15.355 0-21.213zm-46.496 296.499h-222.712v-30h6.271c.007 0 .013.001.02.001h210.132c.007 0 .013-.001.02-.001h6.271v30zm-201.422-60v-114.667h30.066c8.284 0 15-6.716 15-15s-6.716-15-15-15h-25.631l21.89-83.574 63.742-45.056 63.742 45.056 26.324 100.506v56.402h-30.066c-8.284 0-15 6.716-15 15s6.716 15 15 15h30.066v41.333z"/><path d="m507.606 198.284-53.003-53.003 44.822-44.822c5.858-5.857 5.858-15.355 0-21.213l-74.852-74.853c-5.857-5.858-15.355-5.858-21.213 0l-108.492 108.492c-5.858 5.857-5.858 15.355 0 21.213l74.853 74.853c2.929 2.929 6.768 4.393 10.606 4.393 3.839 0 7.678-1.465 10.607-4.393l42.457-42.457 53.003 53.003c2.929 2.929 6.768 4.394 10.606 4.394s7.678-1.465 10.606-4.394c5.858-5.858 5.858-15.356 0-21.213zm-127.279-21.152-53.639-53.64 87.279-87.279 53.639 53.64z"/></g></svg>